# xmcd CD database file
#
# Track frame offsets:
#	150
#	17575
#	35360
#	55453
#	75520
#
# Disc length: 1316 seconds
#
# Revision: 0
# Processed by: cddbd v1.5.1PL2 Copyright (c) Steve Scherf et al.
# Submitted via: CDex 1.60beta1
#
DISCID=31052205
DTITLE=arc - きっと明日も晴れ
DYEAR=1900
DGENRE=未分類 (日本)
TTITLE0=きっと明日も晴れ
TTITLE1=原っぱの中心で
TTITLE2=チャコ
TTITLE3=花風の吹く場所
TTITLE4=蜂蜜の月
EXTD=
EXTT0=
EXTT1=
EXTT2=
EXTT3=
EXTT4=
PLAYORDER=
